<svg width="80" height="80" viewBox="0 0 80 80" fill="none" xmlns="http://www.w3.org/2000/svg">
<path d="M17.1429 5.71429V17.1429H5.71429V5.71429H17.1429ZM0 0V22.8571H22.8571V0H0Z" fill="#0DC90D"/>
<path d="M45.7141 14.2857V25.7143H34.2856V14.2857H45.7141ZM28.5713 8.57141V31.4286H51.4284V8.57141H28.5713Z" fill="#0DC90D"/>
<path d="M17.1429 40V51.4286H5.71429V40H17.1429ZM0 34.2857V57.1428H22.8571V34.2857H0Z" fill="#0071BC"/>
<path d="M57.1431 22.8571V40H40.0003V57.1428H22.8574V80H80.0003V22.8571H57.1431ZM45.7146 45.7143H57.1431V57.1428H45.7146V45.7143ZM40.0003 74.2857H28.5717V62.8571H40.0003V74.2857ZM57.1431 74.2857H45.7146V62.8571H57.1431V74.2857ZM74.286 74.2857H62.8574V62.8571H74.286V74.2857ZM74.286 57.1428H62.8574V45.7143H74.286V57.1428ZM62.8574 40V28.5714H74.286V40H62.8574Z" fill="#0071BC"/>
</svg>
