<svg width="898" height="668" viewBox="0 0 898 668" fill="none" xmlns="http://www.w3.org/2000/svg">
<path d="M863 207.622C863 309.585 598 603 316.692 644C48 657 -51.3438 522.18 -51.3438 420.216C-97.3544 274.757 -59.9495 23 213.184 23C486.317 23 863 105.658 863 207.622Z" fill="#BCEFFF"/>
<path d="M-84.5904 426.679V426.602L-84.6137 426.528C-109.319 348.498 -111.622 241.961 -71.1061 154.957C-50.8517 111.464 -19.8993 72.8562 24.3035 45.1197C68.5063 17.3831 125.987 0.5 199.326 0.5C346.12 0.5 520.746 22.692 658.663 58.5692C727.625 76.5085 787.382 97.8625 829.886 121.559C851.139 133.408 868.055 145.829 879.653 158.683C891.249 171.536 897.5 184.788 897.5 198.316C897.5 211.909 893.077 228.74 884.708 247.897C876.343 267.046 864.049 288.486 848.343 311.287C816.931 356.888 771.891 407.901 717.396 456.874C608.404 554.823 461.656 644.557 310.569 666.564C166.219 673.537 67.4258 640.84 4.73221 592.783C-57.9651 544.723 -84.5904 481.28 -84.5904 426.679Z" stroke="#BCEFFF"/>
</svg>
