<svg width="889" height="693" viewBox="0 0 889 693" fill="none" xmlns="http://www.w3.org/2000/svg">
<path d="M231.725 670.154C-23.1144 672.301 51.8561 489.299 51.0543 394.137C50.2526 298.976 284.761 29.0392 539.6 26.8921C794.439 24.7449 1172.85 263.838 1173.65 359C1174.46 454.161 486.564 668.006 231.725 670.154Z" fill="#BCEFFF"/>
<path d="M207.304 690.797C139.449 691.369 93.6223 679.614 63.0161 660.136C32.4279 640.67 16.9893 613.457 9.97169 582.982C2.9495 552.487 4.36173 518.736 7.488 486.23C8.41512 476.591 9.49364 467.056 10.5465 457.75C13.0397 435.711 15.3882 414.951 15.2378 397.098C15.1318 384.513 18.9179 368.994 26.1884 351.446C33.4563 333.905 44.1937 314.366 57.9589 293.749C85.4895 252.517 125.112 207.004 173.25 164.583C269.537 79.7308 399.82 7.31134 535.465 6.16848C671.149 5.02529 839.798 68.1152 974.661 144.201C1042.09 182.239 1101.04 223.511 1143.18 261.599C1164.25 280.644 1181.11 298.882 1192.72 315.511C1204.34 332.152 1210.67 347.126 1210.78 359.654C1210.83 365.842 1208.08 372.57 1202.73 379.766C1197.37 386.958 1189.45 394.576 1179.22 402.533C1158.76 418.446 1129.16 435.662 1092.74 453.489C1019.91 489.142 919.88 527.206 811.318 562.176C594.179 632.12 343.035 689.654 207.304 690.797Z" stroke="#BCEFFF"/>
<path d="M254.285 650.267C194.413 650.772 153.986 640.399 126.991 623.22C100.013 606.052 86.397 582.052 80.2069 555.171C74.0126 528.27 75.2578 498.494 78.0165 469.811C78.8344 461.307 79.786 452.895 80.7149 444.684C82.9153 425.233 84.9884 406.908 84.8556 391.149C84.7621 380.055 88.1002 366.369 94.5145 350.887C100.926 335.412 110.4 318.173 122.545 299.982C146.836 263.601 181.798 223.442 224.274 186.01C309.238 111.137 424.193 47.2401 543.873 46.2318C663.593 45.2231 812.408 100.891 931.414 168.031C990.911 201.597 1042.93 238.015 1080.12 271.622C1098.71 288.426 1113.58 304.517 1123.82 319.187C1134.08 333.869 1139.65 347.071 1139.75 358.108C1139.79 363.551 1137.37 369.476 1132.65 375.82C1127.93 382.161 1120.94 388.88 1111.92 395.9C1093.87 409.939 1067.76 425.129 1035.62 440.86C971.354 472.32 883.082 505.909 787.283 536.767C595.669 598.49 374.052 649.258 254.285 650.267Z" stroke="#4556CF"/>
</svg>
