<svg width="214" height="38" viewBox="0 0 214 38" fill="none" xmlns="http://www.w3.org/2000/svg">
<g clip-path="url(#clip0)">
<path d="M10.255 27.7044C7.5365 27.5172 5.48568 26.9557 4.10258 25.9261C2.71947 24.8966 1.67022 23.5394 0.954817 21.7611C-0.57137 17.9704 -0.237517 13.665 1.95638 8.84483C4.96106 3.36946 9.82578 0.421182 16.5505 0H32.7663L30.9062 7.62808H21.7491H17.2659H17.2182C14.9767 7.67488 13.1643 8.33005 11.7812 9.4532C10.3981 10.5296 9.49192 11.8399 9.06268 13.431C7.77496 17.6897 9.06268 19.8424 12.9258 19.8892H17.2182H27.8539L25.8984 27.8448L10.255 27.7044Z" fill="#0071BC"/>
<path d="M42.1131 27.7044C39.3945 27.5172 37.3437 26.9557 35.9606 25.9261C34.5775 24.8966 33.5283 23.5394 32.8606 21.7611C31.2867 17.9704 31.6205 13.665 33.8621 8.84483C36.8191 3.36946 41.6838 0.421182 48.4086 0H64.6243L57.7565 27.8448L42.1131 27.7044ZM52.9395 10.5764L53.6072 7.62808H49.2671C46.9778 7.67488 45.1177 8.28325 43.6869 9.4532C42.3038 10.5296 41.3977 11.8399 40.9684 13.431C39.6807 17.6897 40.9684 19.8424 44.8316 19.8892H50.6979L52.9395 10.5764Z" fill="#0071BC"/>
<path d="M75.4989 0H84.5129L82.4621 7.95567H77.5497C76.9774 7.95567 76.5004 8.14286 76.0235 8.51724C75.5943 8.89163 75.2604 9.4064 75.1173 9.96798L70.6818 27.8916H61.6201L66.5802 7.72167C67.8203 3.22906 70.8249 0.655172 75.4989 0Z" fill="#0071BC"/>
<path d="M92.0964 30.3251H96.8657C97.3903 30.3251 97.915 30.1379 98.4396 29.8103C98.9642 29.436 99.2981 29.0148 99.4888 28.5468L99.6796 27.798L93.4318 27.7512C90.7133 27.564 88.6624 27.0025 87.2793 25.9729C85.8962 24.9433 84.847 23.5394 84.1316 21.8079C82.6054 18.0172 82.9392 13.7118 85.1331 8.89163C88.1378 3.36946 93.0025 0.421182 99.7273 0H115.418L113.558 7.62808H104.449H100.443H100.395C98.1534 7.72167 96.3411 8.33005 94.958 9.4532C93.5749 10.5296 92.6687 11.8399 92.2394 13.3842C90.9517 17.6429 92.2394 19.7956 96.1026 19.8424H99.8704H101.54H101.587L104.067 9.87438H112.986L109.743 23.0246L108.312 28.5C107.692 31.0271 106.214 33.2266 103.877 35.0985C101.54 36.9704 99.1073 37.9064 96.6272 37.9064H90.4271L92.0964 30.3251Z" fill="#0071BC"/>
<path d="M118.995 25.7856C117.612 24.756 116.562 23.3053 115.847 21.527C114.273 17.6427 114.607 13.2905 116.848 8.47032C119.853 3.08855 124.766 0.280666 131.49 0.046676C133.112 -0.0469201 134.781 -0.04692 136.498 0.093474C139.264 0.327464 141.363 0.982637 142.746 2.05899C144.129 3.13535 145.226 4.58608 145.941 6.36441C147.515 10.2954 147.181 14.6477 144.94 19.4211C141.935 24.8028 136.975 27.6575 130.012 27.9383C128.629 28.0787 127.007 28.0787 125.242 27.9383C122.476 27.5639 120.378 26.8619 118.995 25.7856ZM137.643 14.6945C138.215 12.5885 138.215 10.9974 137.69 9.92106C137.166 8.8447 135.83 8.18953 133.684 8.00234C130.918 7.81515 128.676 8.28313 126.864 9.40628C125.481 10.4826 124.527 11.793 124.098 13.3373C122.81 17.5023 124.146 19.7018 128.056 20.0294C131.252 20.123 133.541 19.6551 134.877 18.6255C136.307 17.5491 137.214 16.2388 137.643 14.6945Z" fill="#0071BC"/>
<path d="M159.2 27.7044C156.482 27.5172 154.431 26.9557 153.048 25.9261C151.665 24.8965 150.616 23.4926 149.9 21.7611C148.374 17.9704 148.708 13.665 150.902 8.84483C153.906 3.32266 158.723 0.374384 165.496 0H174.748C177.61 0.187192 179.47 0.982758 180.376 2.4335C181.282 3.88424 181.521 5.52217 181.044 7.34729L180.996 7.62808L178.516 17.5961H161.919C161.013 17.4557 160.536 16.8005 160.488 15.5837C160.44 14.367 160.87 13.1502 161.633 11.9335C162.396 10.7167 163.588 10.0148 165.114 9.92118H168.405H171.362L171.934 7.62808H171.839H166.211H166.164C163.97 7.67488 162.157 8.33005 160.774 9.4532C159.391 10.5296 158.485 11.8399 158.056 13.3842C156.959 17.5493 158.246 19.7488 161.919 19.8424H166.211H177.991L176.036 27.798L159.2 27.7044Z" fill="#0DC90D"/>
<path d="M214 0L202.22 13.8522L209.183 27.8916H199.978L196.353 20.6847L190.296 27.8916H180.424L192.729 13.431L186.147 0H195.352L198.643 6.59852L204.27 0H214Z" fill="#0071BC"/>
</g>
<defs>
<clipPath id="clip0">
<rect width="214" height="38" fill="white"/>
</clipPath>
</defs>
</svg>
