<svg width="73" height="81" viewBox="0 0 73 81" fill="none" xmlns="http://www.w3.org/2000/svg">
<path d="M56.3276 22.4659C56.3276 10.0553 46.2918 0 33.9052 0C21.5185 0 11.4827 10.0553 11.4827 22.4659C11.4827 29.9666 15.1534 36.6158 20.7952 40.6922C20.7591 40.7104 20.7319 40.7194 20.7139 40.7285C16.6724 42.4406 13.0468 44.8955 9.92756 48.0299C6.8083 51.1552 4.36714 54.7968 2.65833 58.8552C0.985688 62.8229 0.0905972 67.0353 0.0001839 71.3654C-0.00885743 71.7731 0.31663 72.1082 0.72349 72.1082H6.13924C6.52802 72.1082 6.85351 71.7912 6.86255 71.4016C7.04338 64.4082 9.83715 57.8587 14.7828 52.8945C19.8911 47.7581 26.6721 44.9318 33.9052 44.9318C46.2918 44.9318 56.3276 34.8765 56.3276 22.4659ZM33.9052 38.0471C25.3159 38.0471 18.3541 31.0718 18.3541 22.4659C18.3541 13.86 25.3159 6.88471 33.9052 6.88471C42.4944 6.88471 49.4562 13.86 49.4562 22.4659C49.4562 31.0718 42.4944 38.0471 33.9052 38.0471ZM43.3986 58.0671H67.2677C67.6655 58.0671 67.991 57.7409 67.991 57.3424V52.2694C67.991 51.8708 67.6655 51.5447 67.2677 51.5447H51.3097L55.5772 46.1004C55.6767 45.9735 55.7309 45.8105 55.7309 45.6565C55.7309 45.2579 55.4054 44.9318 55.0076 44.9318H48.4436C48.0006 44.9318 47.5847 45.1401 47.3044 45.4844L41.1111 53.3746C40.7133 53.8819 40.4963 54.516 40.4963 55.1682C40.5053 56.7716 41.7982 58.0671 43.3986 58.0671ZM65.0977 63.8647H41.2286C40.8308 63.8647 40.5053 64.1908 40.5053 64.5894V69.6624C40.5053 70.0609 40.8308 70.3871 41.2286 70.3871H57.1866L52.9191 75.8314C52.8196 75.9582 52.7654 76.1213 52.7654 76.2753C52.7654 76.6739 53.0909 77 53.4887 77H60.0527C60.4957 77 60.9116 76.7917 61.1919 76.4474L67.3852 68.5572C67.783 68.0499 68 67.4158 68 66.7635C67.991 65.1601 66.698 63.8647 65.0977 63.8647Z" fill="#0071BC"/>
<rect x="40" y="43" width="33" height="38" rx="6" fill="white"/>
<path d="M68 55.1428H46L52.5 47" stroke="#0DC90D" stroke-width="7" stroke-linejoin="round"/>
<path d="M44 65.8572H66L59.5 74" stroke="#0DC90D" stroke-width="7" stroke-linejoin="round"/>
</svg>
