<svg width="83" height="81" viewBox="0 0 83 81" fill="none" xmlns="http://www.w3.org/2000/svg">
<path d="M68.37 63.89C61.58 71.95 51.4 77.08 40.03 77.08C19.58 77.07 3 60.49 3 40.04C3 19.58 19.58 3 40.04 3C56.02 3 69.64 13.12 74.83 27.31" stroke="#0071BC" stroke-width="6" stroke-miterlimit="10"/>
<path d="M65.1602 26.61L77.0702 40.04L82.7502 23.01L65.1602 26.61Z" fill="#0071BC"/>
<path d="M45.4796 41.04C45.4796 44.05 43.0396 46.48 40.0396 46.48C37.0296 46.48 34.5996 44.04 34.5996 41.04C34.5996 38.04 37.0396 35.6 40.0396 35.6C43.0396 35.6 45.4796 38.03 45.4796 41.04Z" fill="#0DC90D"/>
<path d="M39.9805 19.92V40.92L64.6505 47.25" stroke="#0DC90D" stroke-width="6" stroke-miterlimit="10"/>
</svg>
